<svg width="27" height="19" viewBox="0 0 27 19" fill="none" xmlns="http://www.w3.org/2000/svg">
<path d="M24.627 0H2.37305C1.06724 0 0 1.06342 0 2.375V16.625C0 17.9371 1.06792 19 2.37305 19H24.627C25.9328 19 27 17.9366 27 16.625V2.375C27 1.0631 25.9322 0 24.627 0ZM24.2626 1.58333C23.4953 2.35373 14.4832 11.4026 14.113 11.7744C13.8038 12.0848 13.1964 12.0851 12.887 11.7744L2.73744 1.58333H24.2626ZM1.58203 16.3339V2.66607L8.38819 9.5L1.58203 16.3339ZM2.73744 17.4167L9.50505 10.6214L11.7666 12.8922C12.6933 13.8227 14.307 13.8223 15.2335 12.8922L17.495 10.6215L24.2626 17.4167H2.73744ZM25.418 16.3339L18.6118 9.5L25.418 2.66607V16.3339Z" fill="#0082D9"/>
</svg>
